<svg width="229" height="71" viewBox="0 0 229 71" fill="none" xmlns="http://www.w3.org/2000/svg">
<path d="M226.879 62.8119C226.879 66.5955 223.974 69.6604 220.382 69.6604H7.77276C4.18209 69.6604 1.26752 66.5955 1.26752 62.8119V8.1971C1.26752 4.41521 4.18209 1.33963 7.77276 1.33963H220.38C223.974 1.33963 226.877 4.41521 226.877 8.1971L226.879 62.8119Z" fill="black"/>
<path d="M219.696 1.42222C223.609 1.42222 226.792 4.76588 226.792 8.87501V62.125C226.792 66.2341 223.609 69.5778 219.696 69.5778H8.44986C4.53757 69.5778 1.35409 66.2341 1.35409 62.125V8.87501C1.35409 4.76588 4.53757 1.42222 8.44986 1.42222H219.696ZM219.696 6.11439e-06H8.44986C3.80455 6.11439e-06 0 3.99598 0 8.87501V62.125C0 67.004 3.80455 71 8.44986 71H219.696C224.342 71 228.146 67.004 228.146 62.125V8.87501C228.146 3.99598 224.342 6.11439e-06 219.696 6.11439e-06Z" fill="#A6A6A6"/>
<path d="M50.9156 35.1166C50.8666 29.3958 55.3754 26.6126 55.5816 26.483C53.028 22.5727 49.0701 22.0384 47.6793 21.9958C44.3551 21.6284 41.1306 24.085 39.4373 24.085C37.7101 24.085 35.1025 22.0313 32.2921 22.0917C28.6755 22.1502 25.2922 24.3495 23.4366 27.7646C19.6071 34.7279 22.4632 44.9608 26.1321 50.5893C27.9674 53.3459 30.112 56.4237 32.919 56.3154C35.6653 56.1965 36.6911 54.4765 40.0051 54.4765C43.2887 54.4765 44.252 56.3154 47.1148 56.2462C50.0621 56.1965 51.9177 53.4772 53.6888 50.6958C55.8097 47.5363 56.6615 44.4247 56.6953 44.265C56.626 44.2401 50.9713 41.9734 50.9156 35.1166Z" fill="white"/>
<path d="M45.5076 18.2932C46.9847 16.3531 47.9953 13.7137 47.7148 11.0352C45.5769 11.1346 42.9034 12.5883 41.3638 14.4858C40.0017 16.1578 38.7849 18.8984 39.0993 21.4757C41.5007 21.6639 43.9664 20.2031 45.5076 18.2932Z" fill="white"/>
<path d="M90.6586 55.9196H86.8207L84.7183 48.9811H77.4109L75.4083 55.9196H71.6718L78.9116 32.2979H83.3833L90.6586 55.9196ZM84.0846 46.0701L82.1834 39.902C81.9823 39.2719 81.6054 37.788 81.0494 35.4521H80.9818C80.7604 36.4567 80.4038 37.9406 79.9137 39.902L78.0463 46.0701H84.0846Z" fill="white"/>
<path d="M109.277 47.1937C109.277 50.0905 108.532 52.3803 107.041 54.0612C105.706 55.5575 104.048 56.3048 102.069 56.3048C99.9331 56.3048 98.3986 55.4989 97.464 53.8872H97.3964V62.8599H93.7934V44.4939C93.7934 42.6728 93.7478 40.8037 93.6599 38.8867H96.8286L97.0297 41.5865H97.0973C98.2989 39.5523 100.122 38.537 102.569 38.537C104.482 38.537 106.08 39.3305 107.357 40.9191C108.638 42.5095 109.277 44.6004 109.277 47.1937ZM105.606 47.3322C105.606 45.6743 105.251 44.3076 104.538 43.2319C103.759 42.1101 102.713 41.5492 101.402 41.5492C100.513 41.5492 99.7049 41.8616 98.9833 42.4775C98.26 43.0988 97.7868 43.91 97.5654 44.9146C97.4539 45.3832 97.3981 45.7666 97.3981 46.0684V48.9084C97.3981 50.1473 97.7598 51.1928 98.4831 52.0466C99.2064 52.9003 100.146 53.3263 101.302 53.3263C102.659 53.3263 103.715 52.7761 104.471 51.6791C105.228 50.5804 105.606 49.132 105.606 47.3322Z" fill="white"/>
<path d="M127.929 47.1937C127.929 50.0905 127.184 52.3803 125.692 54.0612C124.358 55.5575 122.7 56.3048 120.721 56.3048C118.585 56.3048 117.051 55.4989 116.118 53.8872H116.05V62.8599H112.447V44.4939C112.447 42.6728 112.402 40.8037 112.314 38.8867H115.483L115.684 41.5865H115.751C116.951 39.5523 118.775 38.537 121.223 38.537C123.135 38.537 124.732 39.3305 126.013 40.9191C127.289 42.5095 127.929 44.6004 127.929 47.1937ZM124.259 47.3322C124.259 45.6743 123.902 44.3076 123.189 43.2319C122.41 42.1101 121.367 41.5492 120.054 41.5492C119.163 41.5492 118.357 41.8616 117.634 42.4775C116.911 43.0988 116.439 43.91 116.218 44.9146C116.108 45.3832 116.05 45.7666 116.05 46.0684V48.9084C116.05 50.1473 116.412 51.1928 117.132 52.0466C117.855 52.8986 118.795 53.3263 119.954 53.3263C121.311 53.3263 122.367 52.7761 123.123 51.6791C123.88 50.5804 124.259 49.132 124.259 47.3322Z" fill="white"/>
<path d="M148.783 49.2953C148.783 51.3046 148.119 52.9394 146.786 54.2014C145.321 55.5806 143.281 56.2693 140.66 56.2693C138.24 56.2693 136.3 55.7794 134.831 54.7978L135.666 51.6436C137.248 52.6483 138.983 53.1524 140.874 53.1524C142.231 53.1524 143.288 52.8293 144.046 52.1868C144.802 51.5442 145.179 50.6816 145.179 49.6059C145.179 48.6474 144.868 47.8398 144.244 47.1848C143.624 46.5299 142.588 45.921 141.141 45.3584C137.204 43.8159 135.237 41.5563 135.237 38.585C135.237 36.6431 135.926 35.0509 137.307 33.812C138.683 32.5713 140.518 31.9518 142.813 31.9518C144.859 31.9518 146.559 32.3263 147.917 33.0736L147.016 36.1585C145.748 35.4343 144.315 35.0722 142.711 35.0722C141.444 35.0722 140.454 35.4006 139.744 36.0538C139.144 36.6378 138.843 37.3496 138.843 38.1927C138.843 39.1263 139.186 39.8985 139.876 40.5055C140.476 41.0664 141.566 41.6735 143.147 42.3284C145.082 43.1467 146.504 44.1034 147.418 45.2004C148.329 46.2938 148.783 47.6623 148.783 49.2953Z" fill="white"/>
<path d="M160.696 41.7267H156.725V49.9964C156.725 52.0998 157.424 53.1506 158.827 53.1506C159.471 53.1506 160.005 53.092 160.427 52.9748L160.527 55.8486C159.817 56.1272 158.883 56.2675 157.725 56.2675C156.302 56.2675 155.19 55.8113 154.387 54.9007C153.588 53.9884 153.186 52.4583 153.186 50.3088V41.7231H150.82V38.8831H153.186V35.7644L156.725 34.6426V38.8831H160.696V41.7267Z" fill="white"/>
<path d="M178.615 47.2629C178.615 49.8811 177.902 52.0306 176.479 53.7115C174.987 55.4421 173.006 56.3048 170.537 56.3048C168.157 56.3048 166.263 55.4759 164.85 53.818C163.437 52.1602 162.731 50.0674 162.731 47.5452C162.731 44.9057 163.458 42.7438 164.916 41.0629C166.371 39.3802 168.335 38.5388 170.804 38.5388C173.183 38.5388 175.098 39.3677 176.543 41.0274C177.925 42.6373 178.615 44.7158 178.615 47.2629ZM174.877 47.3854C174.877 45.8145 174.557 44.4673 173.91 43.3437C173.155 41.9841 172.075 41.306 170.675 41.306C169.227 41.306 168.127 41.9859 167.371 43.3437C166.724 44.4691 166.405 45.8376 166.405 47.4564C166.405 49.0273 166.724 50.3745 167.371 51.4963C168.151 52.856 169.239 53.534 170.643 53.534C172.019 53.534 173.099 52.8418 173.878 51.4608C174.542 50.3159 174.877 48.9545 174.877 47.3854Z" fill="white"/>
<path d="M190.326 42.2148C189.97 42.1456 189.59 42.1101 189.191 42.1101C187.923 42.1101 186.943 42.6124 186.254 43.6189C185.654 44.5064 185.353 45.6282 185.353 46.9825V55.9196H181.751L181.785 44.2508C181.785 42.2876 181.74 40.5002 181.65 38.8885H184.788L184.92 42.1474H185.02C185.4 41.0274 186 40.1257 186.821 39.4494C187.624 38.8406 188.491 38.537 189.426 38.537C189.759 38.537 190.059 38.5619 190.326 38.6063V42.2148Z" fill="white"/>
<path d="M206.44 46.5973C206.44 47.2753 206.398 47.8469 206.308 48.3137H195.499C195.542 49.9964 196.064 51.2833 197.068 52.1708C197.979 52.9642 199.156 53.3618 200.603 53.3618C202.204 53.3618 203.664 53.0938 204.977 52.5559L205.541 55.1829C204.007 55.8858 202.195 56.2355 200.105 56.2355C197.59 56.2355 195.616 55.4581 194.18 53.9049C192.746 52.3518 192.028 50.2662 192.028 47.6498C192.028 45.0814 192.696 42.9425 194.033 41.2368C195.432 39.4156 197.323 38.505 199.702 38.505C202.04 38.505 203.809 39.4156 205.011 41.2368C205.962 42.6834 206.44 44.4726 206.44 46.5973ZM203.005 45.6157C203.028 44.4939 202.793 43.5247 202.305 42.7065C201.681 41.6539 200.723 41.1285 199.434 41.1285C198.256 41.1285 197.298 41.6415 196.566 42.671C195.966 43.4892 195.609 44.4708 195.499 45.6139H203.005V45.6157Z" fill="white"/>
<path d="M82.8932 17.766C82.8932 19.8552 82.2966 21.4278 81.1052 22.4839C80.0017 23.4584 78.4334 23.9465 76.402 23.9465C75.3948 23.9465 74.5329 23.9004 73.8113 23.8081V12.3931C74.7526 12.2333 75.7666 12.1517 76.8617 12.1517C78.7967 12.1517 80.2551 12.5936 81.2387 13.4776C82.3406 14.4769 82.8932 15.9058 82.8932 17.766ZM81.0258 17.8175C81.0258 16.4631 80.6844 15.4248 80.0017 14.7006C79.3189 13.9781 78.3218 13.616 77.0087 13.616C76.451 13.616 75.9761 13.6551 75.5824 13.7367V22.4147C75.8004 22.4502 76.1992 22.4662 76.7789 22.4662C78.1342 22.4662 79.1803 22.0704 79.9172 21.2787C80.654 20.4871 81.0258 19.3333 81.0258 17.8175Z" fill="white"/>
<path d="M92.7948 19.5907C92.7948 20.8776 92.445 21.9319 91.7453 22.7591C91.0119 23.6093 90.0401 24.0335 88.8267 24.0335C87.6573 24.0335 86.7261 23.627 86.0315 22.8105C85.3386 21.9958 84.9922 20.9681 84.9922 19.7291C84.9922 18.4334 85.3488 17.3702 86.0653 16.5448C86.7819 15.7194 87.7452 15.3058 88.9586 15.3058C90.128 15.3058 91.0676 15.7123 91.7791 16.527C92.4551 17.3187 92.7948 18.3411 92.7948 19.5907ZM90.9578 19.651C90.9578 18.8789 90.7989 18.2168 90.4829 17.6648C90.1111 16.9974 89.5822 16.6637 88.8943 16.6637C88.1829 16.6637 87.6421 16.9974 87.2703 17.6648C86.9526 18.2168 86.7954 18.8896 86.7954 19.6848C86.7954 20.4569 86.9542 21.119 87.2703 21.671C87.6539 22.3384 88.1879 22.6721 88.8774 22.6721C89.5534 22.6721 90.0841 22.3331 90.466 21.6532C90.7939 21.0906 90.9578 20.4232 90.9578 19.651Z" fill="white"/>
<path d="M106.071 15.4762L103.578 23.8436H101.956L100.924 20.2102C100.662 19.3031 100.449 18.4014 100.283 17.5068H100.251C100.097 18.4263 99.8842 19.3262 99.6104 20.2102L98.5136 23.8436H96.8727L94.5287 15.4762H96.3488L97.2495 19.454C97.4675 20.3948 97.6467 21.2911 97.7903 22.1396H97.8224C97.9543 21.4402 98.1723 20.5492 98.4798 19.4718L99.6104 15.478H101.054L102.137 19.3866C102.399 20.3397 102.612 21.2574 102.776 22.1414H102.825C102.945 21.2805 103.126 20.3628 103.366 19.3866L104.332 15.478H106.071V15.4762Z" fill="white"/>
<path d="M115.253 23.8436H113.482V19.0511C113.482 17.5743 112.948 16.8359 111.876 16.8359C111.351 16.8359 110.926 17.0383 110.597 17.4447C110.271 17.8512 110.105 18.3305 110.105 18.8789V23.8418H108.334V17.8672C108.334 17.1323 108.312 16.3354 108.27 15.4727H109.826L109.909 16.7809H109.958C110.164 16.3744 110.472 16.0389 110.876 15.7709C111.356 15.4585 111.893 15.3005 112.481 15.3005C113.225 15.3005 113.843 15.5526 114.335 16.0585C114.947 16.6779 115.253 17.6027 115.253 18.831V23.8436Z" fill="white"/>
<path d="M120.137 23.8436H118.367V11.6369H120.137V23.8436Z" fill="white"/>
<path d="M130.564 19.5907C130.564 20.8776 130.214 21.9319 129.514 22.7591C128.781 23.6093 127.807 24.0335 126.596 24.0335C125.425 24.0335 124.493 23.627 123.801 22.8105C123.108 21.9958 122.761 20.9681 122.761 19.7291C122.761 18.4334 123.118 17.3702 123.834 16.5448C124.551 15.7194 125.514 15.3058 126.726 15.3058C127.897 15.3058 128.835 15.7123 129.548 16.527C130.224 17.3187 130.564 18.3411 130.564 19.5907ZM128.725 19.651C128.725 18.8789 128.566 18.2168 128.25 17.6648C127.88 16.9974 127.35 16.6637 126.663 16.6637C125.95 16.6637 125.409 16.9974 125.039 17.6648C124.722 18.2168 124.564 18.8896 124.564 19.6848C124.564 20.4569 124.723 21.119 125.039 21.671C125.423 22.3384 125.957 22.6721 126.646 22.6721C127.322 22.6721 127.851 22.3331 128.233 21.6532C128.563 21.0906 128.725 20.4232 128.725 19.651Z" fill="white"/>
<path d="M139.135 23.8436H137.545L137.413 22.8798H137.364C136.82 23.6483 136.044 24.0335 135.037 24.0335C134.285 24.0335 133.677 23.7797 133.219 23.2756C132.803 22.8176 132.595 22.2479 132.595 21.5716C132.595 20.5492 133.001 19.77 133.817 19.2304C134.632 18.6908 135.777 18.4263 137.253 18.4387V18.2825C137.253 17.1802 136.702 16.63 135.598 16.63C134.812 16.63 134.12 16.8377 133.521 17.2495L133.161 16.0283C133.902 15.5472 134.816 15.3058 135.894 15.3058C137.976 15.3058 139.02 16.4596 139.02 18.7671V21.8485C139.02 22.6845 139.059 23.3501 139.135 23.8436ZM137.297 20.9681V19.6777C135.343 19.6422 134.366 20.2048 134.366 21.3639C134.366 21.8006 134.478 22.1272 134.706 22.3455C134.934 22.5638 135.225 22.6721 135.571 22.6721C135.96 22.6721 136.323 22.5425 136.655 22.2851C136.987 22.026 137.192 21.6976 137.268 21.2947C137.287 21.2042 137.297 21.0941 137.297 20.9681Z" fill="white"/>
<path d="M149.199 23.8436H147.628L147.545 22.4999H147.496C146.994 23.5223 146.139 24.0335 144.937 24.0335C143.977 24.0335 143.178 23.6377 142.544 22.8461C141.91 22.0544 141.594 21.0267 141.594 19.7647C141.594 18.4103 141.937 17.3134 142.627 16.4756C143.294 15.6946 144.112 15.3041 145.086 15.3041C146.156 15.3041 146.904 15.6822 147.33 16.4401H147.364V11.6369H149.137V21.5894C149.137 22.4041 149.157 23.1549 149.199 23.8436ZM147.364 20.3149V18.9198C147.364 18.6784 147.347 18.4831 147.315 18.334C147.215 17.8867 147.001 17.5104 146.674 17.2069C146.345 16.9034 145.948 16.7507 145.49 16.7507C144.829 16.7507 144.312 17.0258 143.932 17.5779C143.555 18.1299 143.364 18.8346 143.364 19.6954C143.364 20.5226 143.545 21.1935 143.908 21.7101C144.292 22.2603 144.809 22.5354 145.456 22.5354C146.037 22.5354 146.502 22.3065 146.855 21.8467C147.197 21.4225 147.364 20.9113 147.364 20.3149Z" fill="white"/>
<path d="M164.346 19.5907C164.346 20.8776 163.997 21.9319 163.297 22.7591C162.563 23.6093 161.593 24.0335 160.378 24.0335C159.211 24.0335 158.279 23.627 157.583 22.8105C156.89 21.9958 156.544 20.9681 156.544 19.7291C156.544 18.4334 156.9 17.3702 157.617 16.5448C158.334 15.7194 159.297 15.3058 160.512 15.3058C161.68 15.3058 162.621 15.7123 163.331 16.527C164.007 17.3187 164.346 18.3411 164.346 19.5907ZM162.511 19.651C162.511 18.8789 162.352 18.2168 162.036 17.6648C161.663 16.9974 161.135 16.6637 160.446 16.6637C159.736 16.6637 159.195 16.9974 158.822 17.6648C158.504 18.2168 158.347 18.8896 158.347 19.6848C158.347 20.4569 158.506 21.119 158.822 21.671C159.206 22.3384 159.74 22.6721 160.429 22.6721C161.105 22.6721 161.637 22.3331 162.019 21.6532C162.345 21.0906 162.511 20.4232 162.511 19.651Z" fill="white"/>
<path d="M173.869 23.8436H172.1V19.0511C172.1 17.5743 171.566 16.8359 170.493 16.8359C169.967 16.8359 169.543 17.0383 169.215 17.4447C168.887 17.8512 168.723 18.3305 168.723 18.8789V23.8418H166.951V17.8672C166.951 17.1323 166.93 16.3354 166.888 15.4727H168.443L168.526 16.7809H168.575C168.783 16.3744 169.09 16.0389 169.492 15.7709C169.974 15.4585 170.51 15.3005 171.1 15.3005C171.841 15.3005 172.46 15.5526 172.952 16.0585C173.565 16.6779 173.869 17.6027 173.869 18.831V23.8436Z" fill="white"/>
<path d="M185.789 16.8696H183.839V20.9344C183.839 21.9674 184.185 22.4839 184.871 22.4839C185.189 22.4839 185.452 22.4555 185.66 22.397L185.706 23.8081C185.356 23.9465 184.896 24.0158 184.33 24.0158C183.631 24.0158 183.087 23.7921 182.693 23.3448C182.297 22.8975 182.101 22.1449 182.101 21.0888V16.8696H180.937V15.4762H182.101V13.9426L183.837 13.3924V15.4745H185.787V16.8696H185.789Z" fill="white"/>
<path d="M195.165 23.8436H193.392V19.0866C193.392 17.5867 192.858 16.8359 191.788 16.8359C190.967 16.8359 190.406 17.2708 190.098 18.1405C190.046 18.3234 190.015 18.547 190.015 18.8097V23.8418H188.246V11.6369H190.015V16.6797H190.049C190.607 15.762 191.406 15.3041 192.442 15.3041C193.176 15.3041 193.782 15.5561 194.264 16.062C194.864 16.6921 195.165 17.6293 195.165 18.8683V23.8436Z" fill="white"/>
<path d="M204.836 19.2641C204.836 19.5978 204.813 19.8782 204.771 20.1072H199.459C199.483 20.9344 199.736 21.5645 200.228 22.0011C200.677 22.3916 201.257 22.5869 201.967 22.5869C202.753 22.5869 203.469 22.4555 204.115 22.1911L204.392 23.4833C203.637 23.8276 202.748 23.9998 201.718 23.9998C200.485 23.9998 199.513 23.6182 198.81 22.8549C198.104 22.0917 197.754 21.0675 197.754 19.7824C197.754 18.5204 198.08 17.4696 198.737 16.6318C199.423 15.7372 200.351 15.2899 201.522 15.2899C202.668 15.2899 203.539 15.7372 204.127 16.6318C204.602 17.3418 204.836 18.2204 204.836 19.2641ZM203.146 18.7831C203.16 18.231 203.043 17.7553 202.803 17.3542C202.496 16.8377 202.028 16.5785 201.394 16.5785C200.816 16.5785 200.345 16.8306 199.985 17.3364C199.69 17.7394 199.516 18.2204 199.459 18.7831H203.146Z" fill="white"/>
</svg>
