<svg width="229" height="71" viewBox="0 0 229 71" fill="none" xmlns="http://www.w3.org/2000/svg">
<path d="M219.698 71H8.44991C3.80457 71 0 67.004 0 62.125V8.87501C0 3.99598 3.80457 6.11439e-06 8.44991 6.11439e-06H219.698C224.343 6.11439e-06 228.147 3.99598 228.147 8.87501V62.125C228.147 67.004 224.343 71 219.698 71Z" fill="black"/>
<path d="M219.698 1.42222C223.61 1.42222 226.793 4.76588 226.793 8.87501V62.125C226.793 66.2341 223.61 69.5778 219.698 69.5778H8.44991C4.5376 69.5778 1.3541 66.2341 1.3541 62.125V8.87501C1.3541 4.76588 4.5376 1.42222 8.44991 1.42222H219.698ZM219.698 6.11439e-06H8.44991C3.80457 6.11439e-06 0 3.99598 0 8.87501V62.125C0 67.004 3.80457 71 8.44991 71H219.698C224.343 71 228.147 67.004 228.147 62.125V8.87501C228.147 3.99598 224.343 6.11439e-06 219.698 6.11439e-06Z" fill="#A6A6A6"/>
<path d="M80.1347 18.1827C80.1347 19.6648 79.7123 20.8519 78.8799 21.7371C77.923 22.7866 76.6766 23.3147 75.1493 23.3147C73.6896 23.3147 72.4432 22.7777 71.4208 21.7194C70.3962 20.6455 69.885 19.3276 69.885 17.75C69.885 16.1725 70.3962 14.8546 71.4208 13.7896C72.4432 12.7224 73.6896 12.1854 75.1493 12.1854C75.876 12.1854 76.5689 12.343 77.2301 12.6358C77.8892 12.9309 78.4257 13.3303 78.8144 13.8229L77.9314 14.7592C77.2533 13.9183 76.3302 13.5034 75.1493 13.5034C74.0846 13.5034 73.1615 13.8939 72.3777 14.6815C71.6025 15.4714 71.2138 16.4942 71.2138 17.75C71.2138 19.0059 71.6025 20.0376 72.3777 20.8275C73.1615 21.6062 74.0846 22.0056 75.1493 22.0056C76.2795 22.0056 77.2301 21.6062 77.98 20.8186C78.4743 20.2972 78.7553 19.5783 78.8292 18.6597H75.1493V17.3773H80.0587C80.1178 17.6546 80.1347 17.9231 80.1347 18.1827Z" fill="white" stroke="white" stroke-width="0.16" stroke-miterlimit="10"/>
<path d="M87.9234 13.7363H83.3119V17.1088H87.4692V18.3913H83.3119V21.7638H87.9234V23.0706H82.0063V12.4295H87.9234V13.7363Z" fill="white" stroke="white" stroke-width="0.16" stroke-miterlimit="10"/>
<path d="M93.42 23.0706H92.1145V13.7363H89.2859V12.4295H96.2507V13.7363H93.42V23.0706Z" fill="white" stroke="white" stroke-width="0.16" stroke-miterlimit="10"/>
<path d="M101.291 23.0706V12.4295H102.595V23.0706H101.291Z" fill="white" stroke="white" stroke-width="0.16" stroke-miterlimit="10"/>
<path d="M108.372 23.0706H107.077V13.7363H104.238V12.4295H111.211V13.7363H108.372V23.0706Z" fill="white" stroke="white" stroke-width="0.16" stroke-miterlimit="10"/>
<path d="M124.397 21.7016C123.398 22.7777 122.16 23.3147 120.684 23.3147C119.199 23.3147 117.961 22.7777 116.962 21.7016C115.964 20.6278 115.468 19.3098 115.468 17.75C115.468 16.1903 115.964 14.8723 116.962 13.7985C117.961 12.7224 119.199 12.1854 120.684 12.1854C122.152 12.1854 123.39 12.7224 124.389 13.8073C125.395 14.8901 125.891 16.1991 125.891 17.75C125.891 19.3098 125.395 20.6278 124.397 21.7016ZM117.927 20.8097C118.679 21.6062 119.594 22.0056 120.684 22.0056C121.765 22.0056 122.688 21.6062 123.432 20.8097C124.182 20.0132 124.562 18.9903 124.562 17.75C124.562 16.5098 124.182 15.4869 123.432 14.6904C122.688 13.8939 121.765 13.4945 120.684 13.4945C119.594 13.4945 118.679 13.8939 117.927 14.6904C117.177 15.4869 116.797 16.5098 116.797 17.75C116.797 18.9903 117.177 20.0132 117.927 20.8097Z" fill="white" stroke="white" stroke-width="0.16" stroke-miterlimit="10"/>
<path d="M127.722 23.0706V12.4295H129.307L134.233 20.7054H134.29L134.233 18.6598V12.4295H135.536V23.0706H134.176L129.017 14.3864H128.96L129.017 16.441V23.0706H127.722Z" fill="white" stroke="white" stroke-width="0.16" stroke-miterlimit="10"/>
<path d="M115.147 38.6108C111.178 38.6108 107.935 41.7836 107.935 46.1612C107.935 50.5033 111.178 53.7094 115.147 53.7094C119.125 53.7094 122.367 50.5033 122.367 46.1612C122.367 41.7836 119.125 38.6108 115.147 38.6108ZM115.147 50.7363C112.969 50.7363 111.095 48.8481 111.095 46.1612C111.095 43.4388 112.969 41.5839 115.147 41.5839C117.325 41.5839 119.207 43.4388 119.207 46.1612C119.207 48.8481 117.325 50.7363 115.147 50.7363ZM99.411 38.6108C95.4332 38.6108 92.199 41.7836 92.199 46.1612C92.199 50.5033 95.4332 53.7094 99.411 53.7094C103.387 53.7094 106.623 50.5033 106.623 46.1612C106.623 41.7836 103.387 38.6108 99.411 38.6108ZM99.411 50.7363C97.2309 50.7363 95.3508 48.8481 95.3508 46.1612C95.3508 43.4388 97.2309 41.5839 99.411 41.5839C101.589 41.5839 103.463 43.4388 103.463 46.1612C103.463 48.8481 101.589 50.7363 99.411 50.7363ZM80.686 40.925V44.1333H87.9804C87.767 45.926 87.1967 47.244 86.3221 48.1625C85.2574 49.2719 83.5991 50.5033 80.686 50.5033C76.197 50.5033 72.6818 46.6981 72.6818 41.9833C72.6818 37.2685 76.197 33.4633 80.686 33.4633C83.1133 33.4633 84.8793 34.4595 86.1827 35.7508L88.3353 33.4899C86.5122 31.6617 84.0871 30.2572 80.686 30.2572C74.5303 30.2572 69.3568 35.5179 69.3568 41.9833C69.3568 48.4487 74.5303 53.7094 80.686 53.7094C84.0132 53.7094 86.5122 52.5645 88.4768 50.4168C90.49 48.3023 91.1174 45.3292 91.1174 42.9285C91.1174 42.183 91.0583 41.4974 90.9527 40.925H80.686ZM157.255 43.4122C156.661 41.7237 154.83 38.6108 151.099 38.6108C147.402 38.6108 144.324 41.6705 144.324 46.1612C144.324 50.3901 147.371 53.7094 151.454 53.7094C154.756 53.7094 156.661 51.5949 157.445 50.3635L154.994 48.6484C154.177 49.9042 153.064 50.7363 151.454 50.7363C149.855 50.7363 148.708 49.9664 147.973 48.4487L157.586 44.2708L157.255 43.4122ZM147.453 45.926C147.371 43.015 149.606 41.524 151.207 41.524C152.462 41.524 153.526 42.183 153.881 43.126L147.453 45.926ZM139.639 53.2501H142.799V31.0626H139.639V53.2501ZM134.463 40.2926H134.358C133.648 39.4096 132.294 38.6108 130.578 38.6108C126.979 38.6108 123.688 41.9301 123.688 46.1856C123.688 50.4168 126.979 53.7094 130.578 53.7094C132.294 53.7094 133.648 52.904 134.358 51.9943H134.463V53.077C134.463 55.9636 132.995 57.5145 130.627 57.5145C128.696 57.5145 127.498 56.0502 127.004 54.8188L124.256 56.0235C125.048 58.0249 127.146 60.4877 130.627 60.4877C134.332 60.4877 137.459 58.1979 137.459 52.6266V39.0701H134.463V40.2926ZM130.849 50.7363C128.671 50.7363 126.848 48.8215 126.848 46.1856C126.848 43.5253 128.671 41.5839 130.849 41.5839C132.995 41.5839 134.687 43.5253 134.687 46.1856C134.687 48.8215 132.995 50.7363 130.849 50.7363ZM172.051 31.0626H164.492V53.2501H167.644V44.8433H172.051C175.551 44.8433 178.984 42.183 178.984 37.9518C178.984 33.7229 175.543 31.0626 172.051 31.0626ZM172.133 41.757H167.644V34.1489H172.133C174.486 34.1489 175.83 36.2012 175.83 37.9518C175.83 39.6691 174.486 41.757 172.133 41.757ZM191.616 38.5686C189.339 38.5686 186.971 39.6248 185.997 41.9655L188.794 43.197C189.396 41.9655 190.503 41.5662 191.673 41.5662C193.308 41.5662 194.967 42.5979 194.992 44.4195V44.6525C194.422 44.3063 193.201 43.7938 191.699 43.7938C188.686 43.7938 185.617 45.5355 185.617 48.786C185.617 51.7591 188.084 53.6739 190.858 53.6739C192.979 53.6739 194.149 52.6688 194.884 51.4995H194.992V53.2146H198.036V44.7035C198.036 40.7696 195.239 38.5686 191.616 38.5686ZM191.236 50.7274C190.205 50.7274 188.769 50.1905 188.769 48.8481C188.769 47.1308 190.56 46.4718 192.111 46.4718C193.499 46.4718 194.149 46.7935 194.992 47.2173C194.745 49.2719 193.061 50.7274 191.236 50.7274ZM209.127 39.0545L205.504 48.6728H205.396L201.651 39.0545H198.252L203.879 52.4957L200.668 59.9751H203.962L212.633 39.0545H209.127ZM180.716 53.2501H183.876V31.0626H180.716V53.2501Z" fill="white"/>
<path d="M17.6349 13.3814C17.1385 13.9272 16.8512 14.777 16.8512 15.8775V55.1316C16.8512 56.2321 17.1385 57.0819 17.6349 57.6277L17.7574 57.7475L38.7005 35.7597V35.2405L17.7574 13.2527L17.6349 13.3814Z" fill="url(#paint0_linear_132_366)"/>
<path d="M45.6738 43.0926L38.7006 35.7597V35.2405L45.6823 27.9075L45.8386 28.0029L54.1069 32.9441C56.4665 34.3463 56.4665 36.6538 54.1069 38.0649L45.8386 42.9972L45.6738 43.0926Z" fill="url(#paint1_linear_132_366)"/>
<path d="M45.8386 42.9972L38.7005 35.5001L17.6349 57.6277C18.4186 58.493 19.6967 58.5973 21.15 57.732L45.8386 42.9972Z" fill="url(#paint2_linear_132_366)"/>
<path d="M45.8386 28.0029L21.15 13.2682C19.6967 12.4118 18.4186 12.516 17.6349 13.3813L38.7005 35.5001L45.8386 28.0029Z" fill="url(#paint3_linear_132_366)"/>
<defs>
<linearGradient id="paint0_linear_132_366" x1="36.841" y1="55.5404" x2="7.08813" y2="27.2126" gradientUnits="userSpaceOnUse">
<stop stop-color="#00A0FF"/>
<stop offset="0.0066" stop-color="#00A1FF"/>
<stop offset="0.2601" stop-color="#00BEFF"/>
<stop offset="0.5122" stop-color="#00D2FF"/>
<stop offset="0.7604" stop-color="#00DFFF"/>
<stop offset="1" stop-color="#00E3FF"/>
</linearGradient>
<linearGradient id="paint1_linear_132_366" x1="57.1795" y1="35.4976" x2="16.2872" y2="35.4976" gradientUnits="userSpaceOnUse">
<stop stop-color="#FFE000"/>
<stop offset="0.4087" stop-color="#FFBD00"/>
<stop offset="0.7754" stop-color="#FFA500"/>
<stop offset="1" stop-color="#FF9C00"/>
</linearGradient>
<linearGradient id="paint2_linear_132_366" x1="41.9571" y1="31.4245" x2="1.60973" y2="-6.99032" gradientUnits="userSpaceOnUse">
<stop stop-color="#FF3A44"/>
<stop offset="1" stop-color="#C31162"/>
</linearGradient>
<linearGradient id="paint3_linear_132_366" x1="12.3322" y1="70.6873" x2="30.3491" y2="53.5335" gradientUnits="userSpaceOnUse">
<stop stop-color="#32A071"/>
<stop offset="0.0685" stop-color="#2DA771"/>
<stop offset="0.4762" stop-color="#15CF74"/>
<stop offset="0.8009" stop-color="#06E775"/>
<stop offset="1" stop-color="#00F076"/>
</linearGradient>
</defs>
</svg>
